<svg width="130" height="130" viewBox="0 0 130 130" fill="none" xmlns="http://www.w3.org/2000/svg">
  <path d="M130 95.9324V77.248L65.0112 111.315V130L130 95.9324Z" fill="#37514E"/>
  <path d="M0 34.0673V52.7516L65.0111 18.6843V0L0 34.0673Z" fill="#2F2F2F"/>
  <path d="M130 34.0673V52.7516L65.0112 18.6843V0L130 34.0673Z" fill="#6B9294"/>
  <path d="M17.8274 105.275L0 95.9329V34.0674L17.8274 43.4095V105.275Z" fill="#B7CBCD"/>
  <path d="M65.0112 68.1347V86.819L130 52.7517V34.0674L65.0112 68.1347Z" fill="#37514E"/>
  <path d="M64.9888 68.1346V86.8189L33.2065 69.6799V51.4697L64.9888 68.1346Z" fill="#B7CBCD"/>
  <path d="M65.0113 31.5557L42.3765 43.409L65.0113 55.2623L87.6239 43.409L65.0113 31.5557Z" fill="#C14A11"/>
  <path d="M0 95.9324V77.248L65.0111 111.315V130L0 95.9324Z" fill="#B7CBCD"/>
</svg>
