<svg width="895" height="130" viewBox="0 0 895 130" fill="none" xmlns="http://www.w3.org/2000/svg">
<g clip-path="url(#clip0_841_2753)">
<path d="M130 95.9324V77.248L65.0112 111.315V130L130 95.9324Z" fill="#37514E"/>
<path d="M0 34.0673V52.7516L65.0111 18.6843V0L0 34.0673Z" fill="#2F2F2F"/>
<path d="M130 34.0673V52.7516L65.0112 18.6843V0L130 34.0673Z" fill="#6B9294"/>
<path d="M17.8274 105.275L0 95.9329V34.0674L17.8274 43.4095V105.275Z" fill="#B7CBCD"/>
<path d="M65.0112 68.1347V86.819L130 52.7517V34.0674L65.0112 68.1347Z" fill="#37514E"/>
<path d="M64.9888 68.1346V86.8189L33.2065 69.6799V51.4697L64.9888 68.1346Z" fill="#B7CBCD"/>
<path d="M65.0113 31.5557L42.3765 43.409L65.0113 55.2623L87.6239 43.409L65.0113 31.5557Z" fill="#C14A11"/>
<path d="M0 95.9324V77.248L65.0111 111.315V130L0 95.9324Z" fill="#B7CBCD"/>
</g>
<path d="M626.734 40.7412H644.898V47.4072H626.734V101.667C626.734 107.346 627.476 111.667 628.959 114.63C630.565 117.469 633.345 118.889 637.299 118.889C639.523 118.889 641.562 118.457 643.415 117.593C645.392 116.605 646.752 115.864 647.493 115.37L650.644 120.556C649.037 121.667 647.122 122.963 644.898 124.444C642.674 125.926 639.956 127.222 636.743 128.333C633.531 129.444 629.576 130 624.881 130C619.815 130 615.428 129.136 611.722 127.407C608.015 125.555 605.173 122.654 603.196 118.704C601.343 114.63 600.416 109.321 600.416 102.778V47.4072H589.295V41.2959C594.237 40.3082 598.81 38.2719 603.011 35.1855C607.212 31.9757 610.795 28.0244 613.761 23.333C616.85 18.5183 619.135 13.3949 620.618 7.96289H626.734V40.7412ZM365.713 38.7041C372.879 38.7041 379.058 39.7529 384.247 41.8516C389.437 43.8269 393.638 46.7906 396.851 50.7412C400.187 54.5683 402.596 59.1979 404.079 64.6299C405.685 70.0618 406.488 76.2962 406.488 83.333V85H351.168C351.322 89.4125 351.659 93.3631 352.183 96.8516C352.924 101.666 354.098 105.679 355.704 108.889C357.434 112.099 359.721 114.506 362.562 116.111C365.528 117.593 369.111 118.333 373.312 118.333C377.636 118.333 381.344 117.655 384.433 116.297C387.645 114.815 390.364 112.778 392.588 110.186C394.936 107.593 396.85 104.568 398.333 101.111L404.635 104.444C403.028 108.271 400.805 112.161 397.963 116.111C395.121 120.062 391.105 123.333 385.915 125.926C380.849 128.518 373.93 129.815 365.157 129.815C351.565 129.815 341.186 126.049 334.02 118.519C326.976 110.864 323.454 99.5061 323.454 84.4443C323.454 74.1975 325.061 65.6788 328.273 58.8887C331.61 52.0987 336.367 47.0374 342.545 43.7041C348.847 40.3708 356.569 38.7041 365.713 38.7041ZM546.973 38.8887C557.599 38.8887 565.322 41.2346 570.141 45.9258C575.083 50.6171 577.555 58.1482 577.555 68.5186V109.26C577.555 113.827 577.988 116.851 578.853 118.333C579.717 119.691 581.014 120.37 582.744 120.37C584.227 120.37 585.401 120.186 586.266 119.815C587.254 119.322 588.181 118.889 589.046 118.519L591.085 123.889C587.996 125.864 584.659 127.345 581.076 128.333C577.493 129.321 573.415 129.815 568.844 129.815C564.89 129.815 561.615 129.26 559.021 128.148C556.426 127.037 554.51 125.494 553.274 123.519C552.717 122.627 552.286 121.685 551.98 120.693C551.734 120.893 551.487 121.096 551.236 121.297C548.147 123.766 544.564 125.802 540.486 127.407C536.409 129.012 531.528 129.815 525.844 129.815C517.689 129.815 511.387 128.149 506.938 124.815C502.49 121.482 500.267 116.605 500.267 110.186C500.267 104.013 502.738 98.58 507.681 93.8887C512.623 89.1975 519.542 85.2469 528.438 82.0371C535.234 79.491 542.895 77.4508 551.421 75.9131V62.0371C551.421 56.8519 550.433 52.9627 548.456 50.3701C546.479 47.6541 542.834 46.2959 537.521 46.2959C535.667 46.2959 533.875 46.4812 532.146 46.8516C530.539 47.2219 529.242 47.7779 528.254 48.5186C527.265 49.2593 526.771 50.1237 526.771 51.1113C526.771 52.2224 527.141 53.2101 527.883 54.0742C528.748 54.9384 529.551 55.9261 530.292 57.0371C531.033 58.0248 531.404 59.5682 531.404 61.667C531.404 64.7532 530.292 67.4689 528.068 69.8145C525.844 72.1601 522.693 73.333 518.615 73.333C514.538 73.3329 511.387 72.1601 509.163 69.8145C506.939 67.4688 505.827 64.8144 505.827 61.8516C505.827 58.2714 507.186 54.7526 509.904 51.2959C512.746 47.7158 517.195 44.7529 523.249 42.4072C529.303 40.0616 537.211 38.8887 546.973 38.8887ZM695.291 38.7041C702.458 38.7041 708.637 39.7528 713.826 41.8516C719.016 43.8269 723.217 46.7906 726.43 50.7412C729.766 54.5683 732.175 59.198 733.657 64.6299C735.263 70.0619 736.067 76.2962 736.067 83.333V85H680.746C680.9 89.4126 681.238 93.3631 681.762 96.8516C682.503 101.666 683.677 105.679 685.283 108.889C687.013 112.099 689.299 114.506 692.141 116.111C695.106 117.593 698.69 118.333 702.891 118.333C707.215 118.333 710.922 117.655 714.011 116.297C717.223 114.815 719.942 112.778 722.166 110.186C724.514 107.593 726.429 104.568 727.912 101.111L734.214 104.444C732.608 108.271 730.383 112.161 727.541 116.111C724.699 120.062 720.684 123.333 715.494 125.926C710.428 128.518 703.508 129.815 694.735 129.815C681.143 129.815 670.764 126.049 663.598 118.519C656.555 110.864 653.033 99.506 653.033 84.4443C653.033 74.1975 654.639 65.6788 657.852 58.8887C661.188 52.0988 665.945 47.0374 672.123 43.7041C678.425 40.3708 686.148 38.7042 695.291 38.7041ZM832.915 112.407C832.915 116.481 833.471 119.074 834.583 120.186C835.695 121.173 837.672 121.667 840.514 121.667H844.777V127.778H809.006L807.81 119.741C806.008 121.213 804.122 122.535 802.147 123.704C798.935 125.679 795.537 127.161 791.954 128.148C788.494 129.26 784.787 129.815 780.833 129.815C769.713 129.815 761.002 125.987 754.7 118.333C748.522 110.679 745.433 100 745.433 86.2969C745.433 75.6796 747.224 66.8515 750.808 59.8145C754.391 52.7776 759.519 47.531 766.191 44.0742C772.864 40.494 780.895 38.7041 790.286 38.7041C793.746 38.7041 796.711 38.9505 799.183 39.4443C801.654 39.8147 803.94 40.3706 806.04 41.1113H806.967V17.5928C806.967 14.8767 806.534 13.0869 805.669 12.2227C804.928 11.235 803.631 10.7412 801.777 10.7412H795.476V4.62988L825.131 0H832.915V112.407ZM258.193 35.3701H251.706C250.223 29.3209 248.432 24.6292 246.331 21.2959C244.354 17.9628 241.635 15.6789 238.176 14.4443C234.716 13.2099 230.021 12.5928 224.09 12.5928H210.745C208.027 12.5928 206.174 13.0247 205.186 13.8887C204.197 14.7528 203.702 16.4197 203.702 18.8887V59.8145H224.275C227.982 59.8145 230.824 59.3826 232.801 58.5186C234.778 57.6544 236.2 55.9877 237.064 53.5186C238.053 51.0494 238.856 47.6539 239.474 43.333H244.849V84.4443H239.474C238.856 80.0003 238.053 76.6054 237.064 74.2598C236.2 71.7906 234.778 70.124 232.801 69.2598C230.824 68.3956 227.982 67.9629 224.275 67.9629H203.702V108.519C203.702 111.975 204.073 114.568 204.814 116.297C205.679 118.025 207.471 119.198 210.189 119.815C213.031 120.433 217.603 120.741 223.904 120.741C230.33 120.741 235.644 120 239.845 118.519C244.169 117.037 247.691 114.445 250.409 110.741C253.128 106.914 255.228 101.605 256.711 94.8145H263.013L260.788 127.778H162V121.667C166.201 121.667 169.229 121.42 171.082 120.926C172.935 120.432 174.109 119.444 174.604 117.963C175.221 116.481 175.53 114.259 175.53 111.297V22.2227C175.53 19.1362 175.221 16.8516 174.604 15.3701C174.109 13.8887 172.873 12.901 170.896 12.4072C169.043 11.9134 166.078 11.667 162 11.667V5.55566H258.193V35.3701ZM307.185 112.407C307.185 114.999 307.432 116.975 307.926 118.333C308.42 119.568 309.409 120.432 310.892 120.926C312.498 121.42 314.846 121.667 317.935 121.667V127.778H269.004V121.667C272.463 121.667 275.058 121.42 276.788 120.926C278.518 120.432 279.631 119.568 280.125 118.333C280.619 116.975 280.866 115 280.866 112.407V17.9629C280.866 15.1236 280.495 13.2104 279.754 12.2227C279.136 11.235 277.715 10.7412 275.491 10.7412H269.375V4.62988L299.215 0H307.185V112.407ZM452.367 46.8516H445.324C443.594 46.8516 442.482 47.2842 441.987 48.1484C441.493 49.0126 441.555 50.247 442.173 51.8516L461.634 101.852H462.19L481.466 52.2227C482.084 50.7412 482.146 49.5062 481.651 48.5186C481.157 47.4074 480.044 46.8516 478.314 46.8516H471.271V40.7412H501.298V46.8516C498.085 46.8516 495.676 47.4075 494.069 48.5186C492.587 49.5062 491.227 51.4814 489.991 54.4443L459.225 127.778H445.88L415.854 53.7041C414.742 50.988 413.445 49.1972 411.962 48.333C410.603 47.3454 408.255 46.8516 404.919 46.8516V40.7412H452.367V46.8516ZM792.51 45.3701C785.714 45.3702 780.71 48.3951 777.497 54.4443C774.284 60.3703 772.678 69.2595 772.678 81.1113C772.678 93.9506 774.347 103.518 777.683 109.814C781.019 116.111 785.714 119.26 791.769 119.26C794.61 119.26 797.082 118.642 799.183 117.407C801.283 116.049 803.198 114.444 804.928 112.593C805.607 111.868 806.287 111.169 806.967 110.494V50.9541C805.155 49.4179 803.055 48.1116 800.665 47.0371C798.194 45.926 795.475 45.3701 792.51 45.3701ZM551.421 83.4922C543.908 85.4581 538.163 87.8753 534.185 90.7412C528.995 94.5683 526.4 99.6296 526.4 105.926C526.4 110.494 527.388 113.766 529.365 115.741C531.342 117.716 534.308 118.704 538.262 118.704C540.98 118.704 543.514 118.086 545.861 116.852C547.88 115.742 549.732 114.548 551.421 113.273V83.4922ZM365.527 45.3701C362.438 45.3702 359.782 46.3578 357.558 48.333C355.457 50.3083 353.851 53.7658 352.739 58.7041C351.667 63.467 351.112 70.0099 351.074 78.333H378.872C378.872 70.8023 378.501 64.6292 377.76 59.8145C377.142 55 375.845 51.4198 373.868 49.0742C372.015 46.6051 369.234 45.3701 365.527 45.3701ZM695.106 45.3701C692.018 45.3701 689.361 46.3579 687.137 48.333C685.036 50.3083 683.429 53.7658 682.317 58.7041C681.245 63.467 680.691 70.01 680.653 78.333H708.451C708.451 70.8023 708.08 64.6292 707.339 59.8145C706.721 54.9998 705.423 51.4198 703.446 49.0742C701.593 46.6052 698.813 45.3702 695.106 45.3701Z" fill="#37514E"/>
<path d="M879.649 130C875.818 130 872.482 128.642 869.64 125.926C866.922 123.087 865.562 119.753 865.562 115.926C865.562 112.099 866.983 108.766 869.825 105.926C872.667 103.087 876.004 101.667 879.834 101.667C883.664 101.667 887.001 103.087 889.843 105.926C892.684 108.642 894.105 111.976 894.105 115.926C894.105 119.753 892.684 123.087 889.843 125.926C887.001 128.642 883.603 130 879.649 130Z" fill="#C14A11"/>
<defs>
<clipPath id="clip0_841_2753">
<rect width="130" height="130" fill="white"/>
</clipPath>
</defs>
</svg>
